<?xml version="1.0" standalone="no"?>
<!DOCTYPE svg PUBLIC "-//W3C//DTD SVG 20010904//EN"
 "http://www.w3.org/TR/2001/REC-SVG-20010904/DTD/svg10.dtd">
<svg version="1.0" xmlns="http://www.w3.org/2000/svg"
 width="512.000000pt" height="512.000000pt" viewBox="0 0 512.000000 512.000000"
 preserveAspectRatio="xMidYMid meet">
<metadata>
Created by potrace 1.11, written by Peter Selinger 2001-2013
</metadata>
<g transform="translate(0.000000,512.000000) scale(0.100000,-0.100000)"
fill="#000000" stroke="none">
<path d="M2465 4789 c-125 -28 -365 -135 -524 -234 -134 -83 -236 -162 -356
-277 -295 -281 -491 -620 -589 -1013 l-33 -130 -134 -82 c-74 -45 -223 -135
-332 -200 -108 -65 -228 -137 -265 -160 -37 -23 -85 -51 -107 -63 -104 -56
-143 -134 -108 -220 41 -102 134 -129 244 -71 l59 31 0 -1025 c0 -969 1 -1025
18 -1026 22 -1 4410 -1 4440 0 l22 1 0 1025 c0 564 2 1025 5 1025 3 0 28 -14
57 -32 38 -24 63 -32 98 -32 143 0 213 176 108 273 -11 11 -161 104 -332 207
-602 360 -580 346 -588 379 -54 236 -101 372 -184 537 -46 92 -145 257 -167
280 -7 7 -24 29 -37 48 -13 19 -29 40 -35 46 -5 6 -30 36 -55 65 -151 179
-397 374 -620 491 -250 131 -455 186 -585 157z"/>
</g>
</svg>
